<svg width="40" height="40" viewBox="0 0 40 40" fill="none" xmlns="http://www.w3.org/2000/svg">
<g clip-path="url(#clip0_490_897)">
<path d="M5.92247 0V19.5638C12.6154 25.8973 11.8693 33.7558 4.60583 40V20.3675C-1.8018 13.9447 -1.67014 6.12056 5.92247 0ZM4.60583 3.04997C0.151214 7.92032 0.151214 13.2921 4.60583 18.4098V3.04997ZM5.92247 36.8264C10.3771 31.7019 10.3771 26.3369 5.92247 21.4666V36.8264Z" fill="black"/>
<path d="M20.6593 0V19.5638C27.3522 25.8973 26.6061 33.7558 19.3427 40V20.3675C12.935 13.9447 13.0667 6.12056 20.6593 0ZM19.3427 3.04997C14.8881 7.92032 14.8881 13.2921 19.3427 18.4098V3.04997ZM20.6593 36.8264C25.1139 31.7019 25.1139 26.3369 20.6593 21.4666V36.8264Z" fill="black"/>
<path d="M35.3961 0V19.5638C42.089 25.8973 41.3429 33.7558 34.0794 40V20.3675C27.6718 13.9447 27.8035 6.12056 35.3961 0ZM34.0794 3.04997C29.6248 7.92032 29.6248 13.2921 34.0794 18.4098V3.04997ZM35.3961 36.8264C39.8507 31.7019 39.8507 26.3369 35.3961 21.4666V36.8264Z" fill="black"/>
</g>
<defs>
<clipPath id="clip0_490_897">
<rect width="40" height="40" fill="white"/>
</clipPath>
</defs>
</svg>
