<svg width="40" height="30" viewBox="0 0 40 30" fill="none" xmlns="http://www.w3.org/2000/svg">
<path d="M0 2H40V5H0V2Z" fill="black"/>
<path d="M0 13.5H30V16.5H0V13.5Z" fill="black"/>
<path d="M0.765625 27V21H1.88281L5.51172 25.8945L9.08594 21H10.2031V27H9.45312V21.6797L5.87109 26.6055H5.19141L1.51562 21.6797V27H0.765625Z" fill="black"/>
<path d="M13.1588 27V21H19.0494V21.625H13.9088V23.625H18.8345V24.25H13.9088V26.375H19.1588V27H13.1588Z" fill="black"/>
<path d="M21.5988 27V21H22.38L28.4073 26.0742H28.4152V21H29.1652V27H28.3839L22.3566 21.8828H22.3488V27H21.5988Z" fill="black"/>
<path d="M34.7927 27.125C34.2067 27.125 33.7249 27.0846 33.3473 27.0039C32.9697 26.9258 32.6742 26.7799 32.4606 26.5664C32.2497 26.3529 32.1012 26.0456 32.0153 25.6445C31.932 25.2435 31.8903 24.7214 31.8903 24.0781V21H32.6403V24.0781C32.6403 24.5208 32.6559 24.888 32.6872 25.1797C32.7184 25.4714 32.777 25.7044 32.863 25.8789C32.9489 26.0534 33.0713 26.1836 33.2302 26.2695C33.3916 26.3555 33.5999 26.4115 33.8552 26.4375C34.1104 26.4635 34.4229 26.4766 34.7927 26.4766H36.2067C36.5791 26.4766 36.8916 26.4635 37.1442 26.4375C37.3994 26.4115 37.6065 26.3555 37.7653 26.2695C37.9268 26.1836 38.0505 26.0534 38.1364 25.8789C38.2223 25.7044 38.2809 25.4714 38.3122 25.1797C38.3434 24.888 38.3591 24.5208 38.3591 24.0781V21H39.1091V24.0781C39.1091 24.7214 39.0661 25.2435 38.9802 25.6445C38.8968 26.0456 38.7484 26.3529 38.5348 26.5664C38.3239 26.7799 38.0296 26.9258 37.652 27.0039C37.2744 27.0846 36.7927 27.125 36.2067 27.125H34.7927Z" fill="black"/>
</svg>
