<svg xmlns="http://www.w3.org/2000/svg" version="1.1" xmlns:xlink="http://www.w3.org/1999/xlink" width="1000" height="1000"><g clip-path="url(#SvgjsClipPath1225)"><rect width="1000" height="1000" fill="#ffffff"></rect><g transform="matrix(1.6420361247947455,0,0,1.6420361247947455,0,0)"><svg xmlns="http://www.w3.org/2000/svg" version="1.1" xmlns:xlink="http://www.w3.org/1999/xlink" width="609" height="609"><svg width="609" height="609" viewBox="0 0 609 609" fill="none" xmlns="http://www.w3.org/2000/svg">
<path d="M0 304.5C0 136.329 136.329 0 304.5 0C472.671 0 609 136.329 609 304.5C609 472.671 472.671 609 304.5 609C136.329 609 0 472.671 0 304.5Z" fill="white"></path>
<path d="M325.692 13.5333V297.058C540.812 388.845 516.832 502.733 283.372 593.225V308.705C77.4205 215.624 81.6524 102.234 325.692 13.5333ZM283.372 57.7344C140.193 128.317 140.193 206.166 283.372 280.333V57.7344ZM325.692 547.232C468.871 472.966 468.871 395.217 325.692 324.633V547.232Z" fill="black"></path>
</svg></svg></g></g><defs><clipPath id="SvgjsClipPath1225"><rect width="1000" height="1000" x="0" y="0" rx="500" ry="500"></rect></clipPath></defs></svg>