<svg width="100" height="99" viewBox="0 0 100 99" fill="none" xmlns="http://www.w3.org/2000/svg">
<path opacity="0.6" d="M14.2105 86V68.0556L69.6842 12.5333C70.5263 11.6889 71.4737 11.0556 72.5263 10.6333C73.5789 10.2111 74.6316 10 75.6842 10C76.807 10 77.8772 10.2111 78.8947 10.6333C79.9123 11.0556 80.807 11.6889 81.5789 12.5333L87.4737 18.4444C88.3158 19.2185 88.9474 20.1157 89.3684 21.1361C89.7895 22.1565 90 23.2296 90 24.3556C90 25.4111 89.7895 26.4667 89.3684 27.5222C88.9474 28.5778 88.3158 29.5278 87.4737 30.3722L32.1053 86H14.2105ZM22.6316 77.5556H28.5263L69.8947 36.1778L66.9474 33.1167L63.8947 30.1611L22.6316 71.6444V77.5556ZM66.9474 33.1167L63.8947 30.1611L69.8947 36.1778L66.9474 33.1167ZM56.3158 86C61.5088 86 66.3158 84.6982 70.7368 82.0944C75.1579 79.4907 77.3684 75.8667 77.3684 71.2222C77.3684 68.6889 76.7018 66.5074 75.3684 64.6778C74.0351 62.8481 72.2456 61.2648 70 59.9278L63.7895 66.1556C65.4035 66.8593 66.6667 67.6333 67.5789 68.4778C68.4912 69.3222 68.9474 70.237 68.9474 71.2222C68.9474 72.8407 67.6667 74.3009 65.1053 75.6028C62.5439 76.9046 59.614 77.5556 56.3158 77.5556C55.1228 77.5556 54.1228 77.9602 53.3158 78.7694C52.5088 79.5787 52.1053 80.5815 52.1053 81.7778C52.1053 82.9741 52.5088 83.9769 53.3158 84.7861C54.1228 85.5954 55.1228 86 56.3158 86ZM16.6316 53.7L22.9474 47.3667C21.5439 46.8037 20.4386 46.2231 19.6316 45.625C18.8246 45.0269 18.4211 44.4111 18.4211 43.7778C18.4211 42.9333 19.0526 42.0889 20.3158 41.2444C21.5789 40.4 24.2456 39.0981 28.3158 37.3389C34.4912 34.6648 38.5965 32.237 40.6316 30.0556C42.6667 27.8741 43.6842 25.4111 43.6842 22.6667C43.6842 18.7963 42.1404 15.7176 39.0526 13.4306C35.9649 11.1435 31.8947 10 26.8421 10C23.6842 10 20.8596 10.563 18.3684 11.6889C15.8772 12.8148 13.9649 14.187 12.6316 15.8056C11.8596 16.7204 11.5439 17.7407 11.6842 18.8667C11.8246 19.9926 12.3509 20.9074 13.2632 21.6111C14.1754 22.3852 15.193 22.7019 16.3158 22.5611C17.4386 22.4204 18.386 21.963 19.1579 21.1889C20.1404 20.2037 21.2281 19.5 22.4211 19.0778C23.614 18.6556 25.0877 18.4444 26.8421 18.4444C29.7193 18.4444 31.8421 18.8667 33.2105 19.7111C34.5789 20.5556 35.2632 21.5407 35.2632 22.6667C35.2632 23.6519 34.6491 24.5491 33.4211 25.3583C32.193 26.1676 29.3684 27.5926 24.9474 29.6333C19.3333 32.0963 15.4386 34.3306 13.2632 36.3361C11.0877 38.3417 10 40.8222 10 43.7778C10 46.0296 10.5965 47.9472 11.7895 49.5306C12.9825 51.1139 14.5965 52.5037 16.6316 53.7Z" fill="white"/>
</svg>
