<svg viewBox="0 0 91 87" xmlns="http://www.w3.org/2000/svg">
<path d="M13.7368 77V61.1806L62.9697 12.2333C63.7171 11.4889 64.5579 10.9306 65.4921 10.5583C66.4263 10.1861 67.3605 10 68.2947 10C69.2912 10 70.241 10.1861 71.1441 10.5583C72.0471 10.9306 72.8412 11.4889 73.5263 12.2333L78.7579 17.4444C79.5053 18.1269 80.0658 18.9178 80.4395 19.8174C80.8132 20.7169 81 21.663 81 22.6556C81 23.5861 80.8132 24.5167 80.4395 25.4472C80.0658 26.3778 79.5053 27.2153 78.7579 27.9597L29.6184 77H13.7368ZM21.2105 69.5556H26.4421L63.1566 33.0778L60.5408 30.3792L57.8316 27.7736L21.2105 64.3444V69.5556ZM60.5408 30.3792L57.8316 27.7736L63.1566 33.0778L60.5408 30.3792ZM51.1053 77C55.714 77 59.9803 75.8523 63.9039 73.5569C67.8276 71.2616 69.7895 68.0667 69.7895 63.9722C69.7895 61.7389 69.1978 59.8157 68.0145 58.2028C66.8311 56.5898 65.243 55.194 63.25 54.0153L57.7382 59.5056C59.1706 60.1259 60.2917 60.8083 61.1013 61.5528C61.911 62.2972 62.3158 63.1037 62.3158 63.9722C62.3158 65.3991 61.1792 66.6863 58.9059 67.834C56.6327 68.9817 54.0325 69.5556 51.1053 69.5556C50.0465 69.5556 49.159 69.9123 48.4428 70.6257C47.7265 71.3391 47.3684 72.2231 47.3684 73.2778C47.3684 74.3324 47.7265 75.2164 48.4428 75.9299C49.159 76.6433 50.0465 77 51.1053 77ZM15.8855 48.525L21.4908 42.9417C20.2452 42.4454 19.2643 41.9336 18.548 41.4062C17.8318 40.8789 17.4737 40.3361 17.4737 39.7778C17.4737 39.0333 18.0342 38.2889 19.1553 37.5444C20.2763 36.8 22.643 35.6523 26.2553 34.1014C31.736 31.744 35.3794 29.6037 37.1855 27.6806C38.9917 25.7574 39.8947 23.5861 39.8947 21.1667C39.8947 17.7546 38.5246 15.0405 35.7842 13.0243C33.0439 11.0081 29.4316 10 24.9474 10C22.1447 10 19.6379 10.4963 17.427 11.4889C15.216 12.4815 13.5189 13.6912 12.3355 15.1181C11.6504 15.9245 11.3702 16.8241 11.4947 17.8167C11.6193 18.8093 12.0864 19.6157 12.8961 20.2361C13.7057 20.9185 14.6088 21.1977 15.6053 21.0736C16.6018 20.9495 17.4425 20.5463 18.1276 19.8639C18.9996 18.9954 19.9649 18.375 21.0237 18.0028C22.0825 17.6306 23.3904 17.4444 24.9474 17.4444C27.5009 17.4444 29.3849 17.8167 30.5993 18.5611C31.8138 19.3056 32.4211 20.1741 32.4211 21.1667C32.4211 22.0352 31.8761 22.8262 30.7862 23.5396C29.6963 24.253 27.1895 25.5093 23.2658 27.3083C18.2833 29.4796 14.8268 31.4493 12.8961 33.2174C10.9654 34.9854 10 37.1722 10 39.7778C10 41.763 10.5294 43.4535 11.5882 44.8493C12.6469 46.2451 14.0794 47.4704 15.8855 48.525Z" fill="#000"/>
</svg>
