<svg viewBox="0 0 100 80" xmlns="http://www.w3.org/2000/svg">
<path d="M27.5 70V61H54.5C53.45 59.725 52.6062 58.3375 51.9688 56.8375C51.3313 55.3375 50.825 53.725 50.45 52H36.5V43H50.45C50.825 41.275 51.3313 39.6625 51.9688 38.1625C52.6062 36.6625 53.45 35.275 54.5 34H9.5V25H72.5C78.725 25 84.0313 27.1937 88.4188 31.5812C92.8063 35.9688 95 41.275 95 47.5C95 53.725 92.8063 59.0313 88.4188 63.4188C84.0313 67.8063 78.725 70 72.5 70H27.5ZM72.5 61C76.25 61 79.4375 59.6875 82.0625 57.0625C84.6875 54.4375 86 51.25 86 47.5C86 43.75 84.6875 40.5625 82.0625 37.9375C79.4375 35.3125 76.25 34 72.5 34C68.75 34 65.5625 35.3125 62.9375 37.9375C60.3125 40.5625 59 43.75 59 47.5C59 51.25 60.3125 54.4375 62.9375 57.0625C65.5625 59.6875 68.75 61 72.5 61ZM5 52V43H32V52H5ZM9.5 70V61H23V70H9.5Z" fill="#000"/>
</svg>
