<svg width="60" height="60" viewBox="0 0 60 60" fill="none" xmlns="http://www.w3.org/2000/svg">
<path fill-rule="evenodd" clip-rule="evenodd" d="M30.517 10C19.1716 10 10 19.1666 10 30.507C10 39.572 15.8766 47.2453 24.0289 49.9611C25.0482 50.1653 25.4215 49.5198 25.4215 48.9769C25.4215 48.5015 25.3879 46.8719 25.3879 45.174C19.6806 46.3965 18.4921 42.7295 18.4921 42.7295C17.5749 40.3528 16.2159 39.742 16.2159 39.742C14.3479 38.4857 16.352 38.4857 16.352 38.4857C18.4241 38.6215 19.5114 40.5907 19.5114 40.5907C21.3454 43.714 24.3006 42.8315 25.4896 42.2882C25.6592 40.964 26.2031 40.0474 26.7805 39.5382C22.2285 39.0628 17.4393 37.2974 17.4393 29.4203C17.4393 27.1795 18.254 25.3462 19.545 23.9204C19.3413 23.4112 18.6278 21.3058 19.7491 18.4879C19.7491 18.4879 21.4814 17.9446 25.3875 20.5929C27.0598 20.144 28.7845 19.9156 30.517 19.9137C32.2493 19.9137 34.0153 20.1516 35.646 20.5929C39.5525 17.9446 41.2849 18.4879 41.2849 18.4879C42.4062 21.3058 41.6922 23.4112 41.4885 23.9204C42.8135 25.3462 43.5947 27.1795 43.5947 29.4203C43.5947 37.2974 38.8054 39.0286 34.2194 39.5382C34.9669 40.1832 35.612 41.4053 35.612 43.3407C35.612 46.0907 35.5784 48.2978 35.5784 48.9765C35.5784 49.5198 35.9521 50.1652 36.971 49.9615C45.1233 47.2448 50.9999 39.572 50.9999 30.507C51.0335 19.1666 41.8283 10 30.517 10Z" fill="black"/>
</svg>
