<svg width="60" height="60" viewBox="0 0 60 60" fill="none" xmlns="http://www.w3.org/2000/svg">
<path d="M25 46C29.4333 46 33.2083 44.4417 36.325 41.325C39.4417 38.2083 41 34.4333 41 30C41 25.5667 39.4417 21.7917 36.325 18.675C33.2083 15.5583 29.4333 14 25 14H23.95C23.6167 14 23.3 14.0333 23 14.1C24.9 16.3 26.375 18.7583 27.425 21.475C28.475 24.1917 29 27.0333 29 30C29 32.9667 28.475 35.8083 27.425 38.525C26.375 41.2417 24.9 43.7 23 45.9C23.3 45.9667 23.6167 46 23.95 46H25ZM25 50C23.2333 50 21.5083 49.775 19.825 49.325C18.1417 48.875 16.5333 48.2 15 47.3C18.1 45.5 20.5417 43.0667 22.325 40C24.1083 36.9333 25 33.6 25 30C25 26.4 24.1083 23.0667 22.325 20C20.5417 16.9333 18.1 14.5 15 12.7C16.5333 11.8 18.1417 11.125 19.825 10.675C21.5083 10.225 23.2333 10 25 10C27.7667 10 30.3667 10.525 32.8 11.575C35.2333 12.625 37.35 14.05 39.15 15.85C40.95 17.65 42.375 19.7667 43.425 22.2C44.475 24.6333 45 27.2333 45 30C45 32.7667 44.475 35.3667 43.425 37.8C42.375 40.2333 40.95 42.35 39.15 44.15C37.35 45.95 35.2333 47.375 32.8 48.425C30.3667 49.475 27.7667 50 25 50Z" fill="black"/>
</svg>
