<svg width="100" height="88" viewBox="0 0 100 88" fill="none" xmlns="http://www.w3.org/2000/svg">
<path opacity="0.6" d="M17.2727 79C15.2727 79 13.5606 78.2901 12.1364 76.8703C10.7121 75.4505 10 73.7438 10 71.75V28.25C10 26.2563 10.7121 24.5495 12.1364 23.1297C13.5606 21.7099 15.2727 21 17.2727 21H82.7273C84.7273 21 86.4394 21.7099 87.8636 23.1297C89.2879 24.5495 90 26.2563 90 28.25V71.75C90 73.7438 89.2879 75.4505 87.8636 76.8703C86.4394 78.2901 84.7273 79 82.7273 79H17.2727ZM17.2727 71.75H82.7273V28.25H17.2727V71.75ZM35.4545 68.125H64.5455V60.875H35.4545V68.125ZM24.5455 55.4375H31.8182V48.1875H24.5455V55.4375ZM39.0909 55.4375H46.3636V48.1875H39.0909V55.4375ZM53.6364 55.4375H60.9091V48.1875H53.6364V55.4375ZM68.1818 55.4375H75.4545V48.1875H68.1818V55.4375ZM24.5455 42.75H31.8182V35.5H24.5455V42.75ZM39.0909 42.75H46.3636V35.5H39.0909V42.75ZM53.6364 42.75H60.9091V35.5H53.6364V42.75ZM68.1818 42.75H75.4545V35.5H68.1818V42.75Z" fill="white"/>
</svg>
