<svg width="41" height="30" viewBox="0 0 41 30" fill="none" xmlns="http://www.w3.org/2000/svg">
<path d="M39.4599 0.67245L0.291992 17.1845L1.12407 19.1314L40.292 2.61933L39.4599 0.67245Z" fill="black"/>
<path d="M40.0291 17.8875L1.45354 0L0.554934 1.91626L39.1305 19.8038L40.0291 17.8875Z" fill="black"/>
<path d="M1.01683 27.3151V27.1775C1.01683 26.7093 1.03947 26.3169 1.08475 26.0002C1.13003 25.6813 1.20814 25.422 1.31908 25.2223C1.43001 25.0227 1.58057 24.8701 1.77075 24.7645C1.96319 24.659 2.20431 24.5878 2.4941 24.5511C2.78389 24.5121 3.13255 24.4926 3.54007 24.4926H4.90867C5.37506 24.4926 5.76786 24.5155 6.08709 24.5614C6.40858 24.605 6.66668 24.6934 6.86138 24.8265C7.05835 24.9573 7.20098 25.1512 7.28928 25.4082C7.37757 25.6629 7.42172 26.0014 7.42172 26.4236H6.76969C6.76969 26.0909 6.74026 25.8327 6.68139 25.6491C6.62253 25.4633 6.52291 25.329 6.38254 25.2464C6.24444 25.1638 6.05539 25.1133 5.81541 25.095C5.57542 25.0743 5.27318 25.064 4.90867 25.064H3.54007C3.21632 25.064 2.94351 25.0743 2.72163 25.095C2.49976 25.1133 2.31864 25.1581 2.17827 25.2292C2.04017 25.298 1.93376 25.4082 1.85905 25.5596C1.7866 25.7111 1.73679 25.9176 1.70962 26.1792C1.68245 26.4408 1.66887 26.7736 1.66887 27.1775V27.3151C1.66887 27.7052 1.68245 28.0288 1.70962 28.2858C1.73679 28.5428 1.7866 28.7482 1.85905 28.902C1.93376 29.0557 2.04017 29.1704 2.17827 29.2462C2.31864 29.3219 2.49976 29.3712 2.72163 29.3942C2.94351 29.4171 3.21632 29.4286 3.54007 29.4286H4.90867C5.27318 29.4286 5.57542 29.4206 5.81541 29.4045C6.05539 29.3884 6.24444 29.3414 6.38254 29.2634C6.52291 29.1854 6.62253 29.0557 6.68139 28.8744C6.74026 28.6908 6.76969 28.4338 6.76969 28.1034H7.42172C7.42172 28.5256 7.37757 28.863 7.28928 29.1154C7.20098 29.3678 7.05835 29.5583 6.86138 29.6868C6.66668 29.813 6.40858 29.8967 6.08709 29.938C5.76786 29.9793 5.37506 30 4.90867 30H3.54007C3.03067 30 2.61183 29.9644 2.28355 29.8933C1.95527 29.8245 1.6983 29.6959 1.51265 29.5078C1.32927 29.3196 1.20022 29.0488 1.12551 28.6954C1.05306 28.342 1.01683 27.8819 1.01683 27.3151Z" fill="black"/>
<path d="M9.77394 29.8899V24.6027H10.426V29.3391H14.5555V29.8899H9.77394Z" fill="black"/>
<path d="M18.9827 30C18.4733 30 18.0545 29.9644 17.7262 29.8933C17.3979 29.8245 17.1409 29.6959 16.9553 29.5078C16.7719 29.3196 16.6429 29.0488 16.5682 28.6954C16.4957 28.342 16.4595 27.8819 16.4595 27.3151V27.1775C16.4595 26.7093 16.4821 26.3169 16.5274 26.0002C16.5727 25.6813 16.6508 25.422 16.7617 25.2223C16.8727 25.0227 17.0232 24.8701 17.2134 24.7645C17.4058 24.659 17.647 24.5878 17.9367 24.5511C18.2265 24.5121 18.5752 24.4926 18.9827 24.4926H20.3513C20.7588 24.4926 21.1075 24.5121 21.3973 24.5511C21.6871 24.5878 21.9271 24.659 22.1172 24.7645C22.3097 24.8701 22.4614 25.0227 22.5723 25.2223C22.6832 25.422 22.7614 25.6813 22.8066 26.0002C22.8519 26.3169 22.8746 26.7093 22.8746 27.1775V27.3151C22.8746 27.8819 22.8372 28.342 22.7625 28.6954C22.69 29.0488 22.561 29.3196 22.3753 29.5078C22.192 29.6959 21.9361 29.8245 21.6078 29.8933C21.2796 29.9644 20.8607 30 20.3513 30H18.9827ZM18.9827 29.4286H20.3513C20.6751 29.4286 20.9479 29.4171 21.1698 29.3942C21.3916 29.3712 21.5716 29.3219 21.7097 29.2462C21.8501 29.1704 21.9565 29.0557 22.0289 28.902C22.1037 28.7482 22.1546 28.5428 22.1818 28.2858C22.2089 28.0288 22.2225 27.7052 22.2225 27.3151V27.1775C22.2225 26.7736 22.2089 26.4408 22.1818 26.1792C22.1546 25.9176 22.1037 25.7111 22.0289 25.5596C21.9565 25.4082 21.8501 25.298 21.7097 25.2292C21.5716 25.1581 21.3916 25.1133 21.1698 25.095C20.9479 25.0743 20.6751 25.064 20.3513 25.064H18.9827C18.659 25.064 18.3862 25.0743 18.1643 25.095C17.9424 25.1133 17.7613 25.1581 17.6209 25.2292C17.4828 25.298 17.3764 25.4082 17.3017 25.5596C17.2292 25.7111 17.1794 25.9176 17.1523 26.1792C17.1251 26.4408 17.1115 26.7736 17.1115 27.1775V27.3151C17.1115 27.7052 17.1251 28.0288 17.1523 28.2858C17.1794 28.5428 17.2292 28.7482 17.3017 28.902C17.3764 29.0557 17.4828 29.1704 17.6209 29.2462C17.7613 29.3219 17.9424 29.3712 18.1643 29.3942C18.3862 29.4171 18.659 29.4286 18.9827 29.4286Z" fill="black"/>
<path d="M30.7691 28.3615C30.7691 28.1573 30.7532 27.9967 30.7215 27.8796C30.6898 27.7626 30.6185 27.6766 30.5076 27.6215C30.3966 27.5641 30.2246 27.5274 29.9914 27.5113C29.7582 27.493 29.439 27.4804 29.0337 27.4735L27.1455 27.4459C26.6791 27.4391 26.3044 27.4104 26.0214 27.3599C25.7384 27.3094 25.5245 27.2302 25.3796 27.1224C25.2347 27.0122 25.1373 26.8654 25.0875 26.6818C25.04 26.4982 25.0162 26.2687 25.0162 25.9934C25.0162 25.6927 25.0491 25.4449 25.1147 25.2499C25.1826 25.0548 25.3038 24.9022 25.4781 24.7921C25.6547 24.6819 25.9037 24.605 26.2252 24.5614C26.5467 24.5155 26.9621 24.4926 27.4715 24.4926H28.925C29.3869 24.4926 29.7718 24.5075 30.0797 24.5373C30.3876 24.5672 30.6321 24.636 30.8132 24.7439C30.9943 24.8517 31.1234 25.0192 31.2004 25.2464C31.2796 25.4736 31.3192 25.7857 31.3192 26.1827H30.6672C30.6672 25.8752 30.6378 25.6434 30.5789 25.4874C30.5223 25.329 30.4272 25.2212 30.2936 25.1638C30.1623 25.1064 29.9846 25.0755 29.7605 25.0709C29.5363 25.0663 29.2578 25.064 28.925 25.064H27.5055C27.1002 25.064 26.7754 25.072 26.5308 25.0881C26.2886 25.1041 26.1052 25.1409 25.9807 25.1982C25.8562 25.2556 25.7724 25.3474 25.7294 25.4736C25.6886 25.5998 25.6683 25.7731 25.6683 25.9934C25.6683 26.1792 25.683 26.3284 25.7124 26.4408C25.7418 26.5533 25.8075 26.6393 25.9094 26.699C26.0135 26.7564 26.1731 26.7965 26.3882 26.8195C26.6033 26.8401 26.8965 26.8527 27.2678 26.8573L29.2918 26.8849C29.7673 26.8918 30.1465 26.9204 30.4295 26.9709C30.7147 27.0191 30.9276 27.0983 31.0679 27.2084C31.2106 27.3186 31.3045 27.4677 31.3498 27.6559C31.3973 27.8418 31.4211 28.077 31.4211 28.3615C31.4211 28.6713 31.3917 28.9318 31.3328 29.1429C31.2762 29.3517 31.1653 29.5193 31 29.6455C30.8347 29.7717 30.5959 29.8623 30.2834 29.9174C29.971 29.9725 29.5601 30 29.0507 30H27.4614C26.9972 30 26.6078 29.9793 26.2931 29.938C25.9784 29.8967 25.7271 29.8141 25.5392 29.6902C25.3536 29.564 25.22 29.377 25.1385 29.1291C25.057 28.8813 25.0162 28.5509 25.0162 28.1378H25.6683C25.6683 28.4614 25.6943 28.7115 25.7464 28.8882C25.7984 29.0649 25.889 29.1922 26.018 29.2703C26.1494 29.346 26.3316 29.3919 26.5648 29.408C26.8003 29.4217 27.0991 29.4286 27.4614 29.4286H29.0167C29.422 29.4286 29.7423 29.416 29.9778 29.3907C30.2133 29.3632 30.3876 29.3127 30.5008 29.2393C30.614 29.1636 30.6864 29.0557 30.7181 28.9157C30.7521 28.7757 30.7691 28.591 30.7691 28.3615Z" fill="black"/>
<path d="M33.7428 29.8899V24.6027H38.864V25.1535H34.3948V26.9158H38.6772V27.4666H34.3948V29.3391H38.9591V29.8899H33.7428Z" fill="black"/>
</svg>
