<svg width="60" height="60" viewBox="0 0 60 60" fill="none" xmlns="http://www.w3.org/2000/svg">
<path d="M30 50L24.0708 44.1593H15.8407V35.9292L10 30L15.8407 24.0708V15.8407H24.0708L30 10L35.9292 15.8407H44.1593V24.0708L50 30L44.1593 35.9292V44.1593H35.9292L30 50ZM30 38.8496C32.4484 38.8496 34.5354 37.9867 36.2611 36.2611C37.9867 34.5354 38.8496 32.4484 38.8496 30C38.8496 27.5516 37.9867 25.4646 36.2611 23.7389C34.5354 22.0133 32.4484 21.1504 30 21.1504C27.5516 21.1504 25.4646 22.0133 23.7389 23.7389C22.0133 25.4646 21.1504 27.5516 21.1504 30C21.1504 32.4484 22.0133 34.5354 23.7389 36.2611C25.4646 37.9867 27.5516 38.8496 30 38.8496ZM30 45.0442L34.4248 40.6195H40.6195V34.4248L45.0442 30L40.6195 25.5752V19.3805H34.4248L30 14.9558L25.5752 19.3805H19.3805V25.5752L14.9558 30L19.3805 34.4248V40.6195H25.5752L30 45.0442Z" fill="white"/>
</svg>
