<svg width="40" height="40" viewBox="0 0 40 40" fill="none" xmlns="http://www.w3.org/2000/svg">
<path d="M20 40L14.0708 34.1593H5.84071V25.9292L0 20L5.84071 14.0708V5.84071H14.0708L20 0L25.9292 5.84071H34.1593V14.0708L40 20L34.1593 25.9292V34.1593H25.9292L20 40ZM20 28.8496C22.4484 28.8496 24.5354 27.9867 26.2611 26.2611C27.9867 24.5354 28.8496 22.4484 28.8496 20C28.8496 17.5516 27.9867 15.4646 26.2611 13.7389C24.5354 12.0133 22.4484 11.1504 20 11.1504C17.5516 11.1504 15.4646 12.0133 13.7389 13.7389C12.0133 15.4646 11.1504 17.5516 11.1504 20C11.1504 22.4484 12.0133 24.5354 13.7389 26.2611C15.4646 27.9867 17.5516 28.8496 20 28.8496ZM20 35.0442L24.4248 30.6195H30.6195V24.4248L35.0442 20L30.6195 15.5752V9.38053H24.4248L20 4.95575L15.5752 9.38053H9.38053V15.5752L4.95575 20L9.38053 24.4248V30.6195H15.5752L20 35.0442Z" fill="white"/>
</svg>
