<svg width="30" height="40" viewBox="0 0 30 40" fill="none" xmlns="http://www.w3.org/2000/svg">
<path d="M10 36C14.4333 36 18.2083 34.4417 21.325 31.325C24.4417 28.2083 26 24.4333 26 20C26 15.5667 24.4417 11.7917 21.325 8.675C18.2083 5.55833 14.4333 4 10 4H8.95C8.61667 4 8.3 4.03333 8 4.1C9.9 6.3 11.375 8.75833 12.425 11.475C13.475 14.1917 14 17.0333 14 20C14 22.9667 13.475 25.8083 12.425 28.525C11.375 31.2417 9.9 33.7 8 35.9C8.3 35.9667 8.61667 36 8.95 36H10ZM10 40C8.23333 40 6.50833 39.775 4.825 39.325C3.14167 38.875 1.53333 38.2 0 37.3C3.1 35.5 5.54167 33.0667 7.325 30C9.10833 26.9333 10 23.6 10 20C10 16.4 9.10833 13.0667 7.325 10C5.54167 6.93333 3.1 4.5 0 2.7C1.53333 1.8 3.14167 1.125 4.825 0.675C6.50833 0.225 8.23333 0 10 0C12.7667 0 15.3667 0.525 17.8 1.575C20.2333 2.625 22.35 4.05 24.15 5.85C25.95 7.65 27.375 9.76667 28.425 12.2C29.475 14.6333 30 17.2333 30 20C30 22.7667 29.475 25.3667 28.425 27.8C27.375 30.2333 25.95 32.35 24.15 34.15C22.35 35.95 20.2333 37.375 17.8 38.425C15.3667 39.475 12.7667 40 10 40Z" fill="black"/>
</svg>
